<mxfile host="app.diagrams.net" modified="2024-01-03T09:29:36.490Z" agent="Mozilla/5.0 (Windows NT 10.0; Win64; x64; rv:121.0) Gecko/20100101 Firefox/121.0" etag="4NUIGqujDykeEMi5w4Wt" version="22.1.16" type="device">
  <diagram name="Page-1" id="OueMdNKlh8Kx6tgulEsc">
    <mxGraphModel dx="1232" dy="1147" grid="1" gridSize="10" guides="1" tooltips="1" connect="1" arrows="1" fold="1" page="1" pageScale="1" pageWidth="827" pageHeight="1169" math="0" shadow="0">
      <root>
        <mxCell id="0" />
        <mxCell id="1" parent="0" />
        <mxCell id="G7fX_YhACkhLRDJqQzmJ-1" value="" style="shape=folder;fontStyle=1;spacingTop=10;tabWidth=194;tabHeight=22;tabPosition=left;html=1;rounded=0;shadow=0;comic=0;labelBackgroundColor=none;strokeWidth=1;fillColor=none;fontFamily=Verdana;fontSize=10;align=center;" parent="1" vertex="1">
          <mxGeometry x="260" y="260" width="1580" height="1360" as="geometry" />
        </mxCell>
        <mxCell id="G7fX_YhACkhLRDJqQzmJ-2" value="Components" style="text;html=1;align=left;verticalAlign=top;spacingTop=-4;fontSize=10;fontFamily=Verdana" parent="1" vertex="1">
          <mxGeometry x="270" y="260" width="130" height="20" as="geometry" />
        </mxCell>
        <mxCell id="G7fX_YhACkhLRDJqQzmJ-3" value="&lt;div&gt;&lt;b&gt;&amp;lt;&amp;lt;Component&amp;gt;&amp;gt;&lt;/b&gt;&lt;/div&gt;&lt;div&gt;Web App&lt;br&gt;&lt;/div&gt;" style="html=1;dropTarget=0;whiteSpace=wrap;" parent="1" vertex="1">
          <mxGeometry x="280" y="470" width="180" height="90" as="geometry" />
        </mxCell>
        <mxCell id="G7fX_YhACkhLRDJqQzmJ-4" value="" style="shape=module;jettyWidth=8;jettyHeight=4;fillColor=#dae8fc;strokeColor=#6c8ebf;" parent="G7fX_YhACkhLRDJqQzmJ-3" vertex="1">
          <mxGeometry x="1" width="20" height="20" relative="1" as="geometry">
            <mxPoint x="-27" y="7" as="offset" />
          </mxGeometry>
        </mxCell>
        <mxCell id="G7fX_YhACkhLRDJqQzmJ-5" value="" style="shape=folder;fontStyle=1;spacingTop=10;tabWidth=194;tabHeight=22;tabPosition=left;html=1;rounded=0;shadow=0;comic=0;labelBackgroundColor=none;strokeWidth=1;fillColor=none;fontFamily=Verdana;fontSize=10;align=center;" parent="1" vertex="1">
          <mxGeometry x="500" y="310" width="880" height="1060" as="geometry" />
        </mxCell>
        <mxCell id="G7fX_YhACkhLRDJqQzmJ-6" value="Application Server" style="text;html=1;align=left;verticalAlign=top;spacingTop=-4;fontSize=10;fontFamily=Verdana" parent="1" vertex="1">
          <mxGeometry x="510" y="310" width="130" height="20" as="geometry" />
        </mxCell>
        <mxCell id="G7fX_YhACkhLRDJqQzmJ-7" value="&lt;div&gt;&lt;b&gt;&amp;lt;&amp;lt;Service&amp;gt;&amp;gt;&lt;/b&gt;&lt;/div&gt;&lt;div&gt;Account Manager&lt;br&gt;&lt;/div&gt;" style="html=1;dropTarget=0;whiteSpace=wrap;" parent="1" vertex="1">
          <mxGeometry x="692.5" y="480" width="145" height="70" as="geometry" />
        </mxCell>
        <mxCell id="G7fX_YhACkhLRDJqQzmJ-8" value="" style="shape=module;jettyWidth=8;jettyHeight=4;fillColor=#d5e8d4;strokeColor=#82b366;" parent="G7fX_YhACkhLRDJqQzmJ-7" vertex="1">
          <mxGeometry x="1" width="20" height="20" relative="1" as="geometry">
            <mxPoint x="-27" y="7" as="offset" />
          </mxGeometry>
        </mxCell>
        <mxCell id="G7fX_YhACkhLRDJqQzmJ-9" value="" style="ellipse;whiteSpace=wrap;html=1;align=center;aspect=fixed;fillColor=none;strokeColor=none;resizable=0;perimeter=centerPerimeter;rotatable=0;allowArrows=0;points=[];outlineConnect=1;" parent="1" vertex="1">
          <mxGeometry x="760" y="510" width="10" height="10" as="geometry" />
        </mxCell>
        <mxCell id="G7fX_YhACkhLRDJqQzmJ-10" value="&lt;div&gt;&lt;b&gt;«Component»&lt;/b&gt;&lt;/div&gt;&lt;div&gt;GitHub Action&amp;nbsp;&lt;/div&gt;&lt;div&gt;APIs&lt;/div&gt;" style="html=1;dropTarget=0;whiteSpace=wrap;" parent="1" vertex="1">
          <mxGeometry x="962.5" y="1475.5" width="140" height="70" as="geometry" />
        </mxCell>
        <mxCell id="G7fX_YhACkhLRDJqQzmJ-11" value="" style="shape=module;jettyWidth=8;jettyHeight=4;fillColor=#e1d5e7;strokeColor=#9673a6;" parent="G7fX_YhACkhLRDJqQzmJ-10" vertex="1">
          <mxGeometry x="1" width="20" height="20" relative="1" as="geometry">
            <mxPoint x="-27" y="7" as="offset" />
          </mxGeometry>
        </mxCell>
        <mxCell id="G7fX_YhACkhLRDJqQzmJ-12" style="edgeStyle=orthogonalEdgeStyle;rounded=0;orthogonalLoop=1;jettySize=auto;html=1;endArrow=none;endFill=0;" parent="1" source="G7fX_YhACkhLRDJqQzmJ-13" target="G7fX_YhACkhLRDJqQzmJ-10" edge="1">
          <mxGeometry relative="1" as="geometry" />
        </mxCell>
        <mxCell id="G7fX_YhACkhLRDJqQzmJ-13" value="" style="shape=providedRequiredInterface;html=1;verticalLabelPosition=bottom;sketch=0;rotation=-180;" parent="1" vertex="1">
          <mxGeometry x="892.5" y="1500.5" width="20" height="20" as="geometry" />
        </mxCell>
        <mxCell id="G7fX_YhACkhLRDJqQzmJ-14" value="&lt;div&gt;GitHub Actions&lt;/div&gt;&lt;div&gt;APIs Interface&lt;br&gt;&lt;/div&gt;" style="text;html=1;strokeColor=none;fillColor=none;align=center;verticalAlign=middle;whiteSpace=wrap;rounded=0;" parent="1" vertex="1">
          <mxGeometry x="837.5" y="1524.5" width="130" height="30" as="geometry" />
        </mxCell>
        <mxCell id="G7fX_YhACkhLRDJqQzmJ-15" style="edgeStyle=orthogonalEdgeStyle;rounded=0;orthogonalLoop=1;jettySize=auto;html=1;endArrow=none;endFill=0;jumpStyle=arc;" parent="1" source="G7fX_YhACkhLRDJqQzmJ-16" target="G7fX_YhACkhLRDJqQzmJ-7" edge="1">
          <mxGeometry relative="1" as="geometry" />
        </mxCell>
        <mxCell id="G7fX_YhACkhLRDJqQzmJ-16" value="" style="shape=providedRequiredInterface;html=1;verticalLabelPosition=bottom;sketch=0;rotation=-180;" parent="1" vertex="1">
          <mxGeometry x="590" y="505" width="20" height="20" as="geometry" />
        </mxCell>
        <mxCell id="G7fX_YhACkhLRDJqQzmJ-17" style="edgeStyle=orthogonalEdgeStyle;rounded=0;orthogonalLoop=1;jettySize=auto;html=1;entryX=1;entryY=0.5;entryDx=0;entryDy=0;entryPerimeter=0;endArrow=none;endFill=0;jumpStyle=arc;" parent="1" source="G7fX_YhACkhLRDJqQzmJ-3" target="G7fX_YhACkhLRDJqQzmJ-16" edge="1">
          <mxGeometry relative="1" as="geometry" />
        </mxCell>
        <mxCell id="G7fX_YhACkhLRDJqQzmJ-18" value="&lt;div&gt;Account Manager Interface&lt;/div&gt;" style="text;html=1;strokeColor=none;fillColor=none;align=center;verticalAlign=middle;whiteSpace=wrap;rounded=0;" parent="1" vertex="1">
          <mxGeometry x="545" y="525" width="110" height="30" as="geometry" />
        </mxCell>
        <mxCell id="G7fX_YhACkhLRDJqQzmJ-19" value="&lt;div&gt;&lt;b&gt;&amp;lt;&amp;lt;Service&amp;gt;&amp;gt;&lt;/b&gt;&lt;/div&gt;&lt;div&gt;Tournament Manager&lt;br&gt;&lt;/div&gt;" style="html=1;dropTarget=0;whiteSpace=wrap;" parent="1" vertex="1">
          <mxGeometry x="1150" y="360" width="145" height="70" as="geometry" />
        </mxCell>
        <mxCell id="G7fX_YhACkhLRDJqQzmJ-20" value="" style="shape=module;jettyWidth=8;jettyHeight=4;fillColor=#d5e8d4;strokeColor=#82b366;" parent="G7fX_YhACkhLRDJqQzmJ-19" vertex="1">
          <mxGeometry x="1" width="20" height="20" relative="1" as="geometry">
            <mxPoint x="-27" y="7" as="offset" />
          </mxGeometry>
        </mxCell>
        <mxCell id="G7fX_YhACkhLRDJqQzmJ-21" value="&lt;div&gt;&lt;b&gt;&amp;lt;&amp;lt;Service&amp;gt;&amp;gt;&lt;/b&gt;&lt;/div&gt;&lt;div&gt;Battle Manager&lt;br&gt;&lt;/div&gt;" style="html=1;dropTarget=0;whiteSpace=wrap;" parent="1" vertex="1">
          <mxGeometry x="1150" y="550" width="145" height="70" as="geometry" />
        </mxCell>
        <mxCell id="G7fX_YhACkhLRDJqQzmJ-22" value="" style="shape=module;jettyWidth=8;jettyHeight=4;fillColor=#d5e8d4;strokeColor=#82b366;" parent="G7fX_YhACkhLRDJqQzmJ-21" vertex="1">
          <mxGeometry x="1" width="20" height="20" relative="1" as="geometry">
            <mxPoint x="-27" y="7" as="offset" />
          </mxGeometry>
        </mxCell>
        <mxCell id="G7fX_YhACkhLRDJqQzmJ-23" value="&lt;div&gt;&lt;b&gt;&amp;lt;&amp;lt;Service&amp;gt;&amp;gt;&lt;/b&gt;&lt;/div&gt;&lt;div&gt;Badge Manager&lt;br&gt;&lt;/div&gt;" style="html=1;dropTarget=0;whiteSpace=wrap;" parent="1" vertex="1">
          <mxGeometry x="1150" y="670" width="145" height="70" as="geometry" />
        </mxCell>
        <mxCell id="G7fX_YhACkhLRDJqQzmJ-24" value="" style="shape=module;jettyWidth=8;jettyHeight=4;fillColor=#d5e8d4;strokeColor=#82b366;" parent="G7fX_YhACkhLRDJqQzmJ-23" vertex="1">
          <mxGeometry x="1" width="20" height="20" relative="1" as="geometry">
            <mxPoint x="-27" y="7" as="offset" />
          </mxGeometry>
        </mxCell>
        <mxCell id="G7fX_YhACkhLRDJqQzmJ-25" style="edgeStyle=orthogonalEdgeStyle;rounded=0;orthogonalLoop=1;jettySize=auto;html=1;endArrow=none;endFill=0;jumpStyle=arc;" parent="1" source="G7fX_YhACkhLRDJqQzmJ-26" target="G7fX_YhACkhLRDJqQzmJ-19" edge="1">
          <mxGeometry relative="1" as="geometry" />
        </mxCell>
        <mxCell id="G7fX_YhACkhLRDJqQzmJ-26" value="" style="shape=providedRequiredInterface;html=1;verticalLabelPosition=bottom;sketch=0;rotation=-180;" parent="1" vertex="1">
          <mxGeometry x="1020" y="385" width="20" height="20" as="geometry" />
        </mxCell>
        <mxCell id="G7fX_YhACkhLRDJqQzmJ-27" style="edgeStyle=orthogonalEdgeStyle;rounded=0;orthogonalLoop=1;jettySize=auto;html=1;entryX=0;entryY=0.5;entryDx=0;entryDy=0;endArrow=none;endFill=0;jumpStyle=arc;" parent="1" source="G7fX_YhACkhLRDJqQzmJ-28" target="G7fX_YhACkhLRDJqQzmJ-21" edge="1">
          <mxGeometry relative="1" as="geometry">
            <Array as="points">
              <mxPoint x="1090" y="515" />
              <mxPoint x="1090" y="585" />
            </Array>
          </mxGeometry>
        </mxCell>
        <mxCell id="G7fX_YhACkhLRDJqQzmJ-28" value="" style="shape=providedRequiredInterface;html=1;verticalLabelPosition=bottom;sketch=0;rotation=-180;" parent="1" vertex="1">
          <mxGeometry x="1020" y="505" width="20" height="20" as="geometry" />
        </mxCell>
        <mxCell id="G7fX_YhACkhLRDJqQzmJ-29" style="edgeStyle=orthogonalEdgeStyle;rounded=0;orthogonalLoop=1;jettySize=auto;html=1;endArrow=none;endFill=0;jumpStyle=arc;" parent="1" source="G7fX_YhACkhLRDJqQzmJ-30" target="G7fX_YhACkhLRDJqQzmJ-23" edge="1">
          <mxGeometry relative="1" as="geometry" />
        </mxCell>
        <mxCell id="G7fX_YhACkhLRDJqQzmJ-30" value="" style="shape=providedRequiredInterface;html=1;verticalLabelPosition=bottom;sketch=0;rotation=-180;" parent="1" vertex="1">
          <mxGeometry x="1020" y="695" width="20" height="20" as="geometry" />
        </mxCell>
        <mxCell id="G7fX_YhACkhLRDJqQzmJ-31" value="Tournament Manager Interface" style="text;html=1;strokeColor=none;fillColor=none;align=center;verticalAlign=middle;whiteSpace=wrap;rounded=0;" parent="1" vertex="1">
          <mxGeometry x="970" y="410" width="120" height="30" as="geometry" />
        </mxCell>
        <mxCell id="G7fX_YhACkhLRDJqQzmJ-32" value="Battle Manager Interface" style="text;html=1;strokeColor=none;fillColor=none;align=center;verticalAlign=middle;whiteSpace=wrap;rounded=0;" parent="1" vertex="1">
          <mxGeometry x="980" y="525" width="100" height="30" as="geometry" />
        </mxCell>
        <mxCell id="G7fX_YhACkhLRDJqQzmJ-33" value="Badge Interface" style="text;html=1;strokeColor=none;fillColor=none;align=center;verticalAlign=middle;whiteSpace=wrap;rounded=0;" parent="1" vertex="1">
          <mxGeometry x="980" y="715" width="100" height="30" as="geometry" />
        </mxCell>
        <mxCell id="G7fX_YhACkhLRDJqQzmJ-42" value="&lt;div&gt;&lt;b&gt;«Component»&lt;/b&gt;&lt;/div&gt;&lt;div&gt;Testing APIs&lt;/div&gt;" style="html=1;dropTarget=0;whiteSpace=wrap;" parent="1" vertex="1">
          <mxGeometry x="1310" y="1480" width="140" height="70" as="geometry" />
        </mxCell>
        <mxCell id="G7fX_YhACkhLRDJqQzmJ-43" value="" style="shape=module;jettyWidth=8;jettyHeight=4;fillColor=#e1d5e7;strokeColor=#9673a6;" parent="G7fX_YhACkhLRDJqQzmJ-42" vertex="1">
          <mxGeometry x="1" width="20" height="20" relative="1" as="geometry">
            <mxPoint x="-26" y="5" as="offset" />
          </mxGeometry>
        </mxCell>
        <mxCell id="G7fX_YhACkhLRDJqQzmJ-44" style="edgeStyle=orthogonalEdgeStyle;rounded=0;orthogonalLoop=1;jettySize=auto;html=1;entryX=0;entryY=0.5;entryDx=0;entryDy=0;endArrow=none;endFill=0;" parent="1" source="G7fX_YhACkhLRDJqQzmJ-45" target="G7fX_YhACkhLRDJqQzmJ-42" edge="1">
          <mxGeometry relative="1" as="geometry" />
        </mxCell>
        <mxCell id="G7fX_YhACkhLRDJqQzmJ-45" value="" style="shape=providedRequiredInterface;html=1;verticalLabelPosition=bottom;sketch=0;rotation=-180;" parent="1" vertex="1">
          <mxGeometry x="1217.5" y="1505" width="20" height="20" as="geometry" />
        </mxCell>
        <mxCell id="G7fX_YhACkhLRDJqQzmJ-46" value="&lt;div&gt;Testing APIs&amp;nbsp;&lt;/div&gt;&lt;div&gt;Interface&lt;/div&gt;" style="text;html=1;strokeColor=none;fillColor=none;align=center;verticalAlign=middle;whiteSpace=wrap;rounded=0;" parent="1" vertex="1">
          <mxGeometry x="1179" y="1529" width="97" height="30" as="geometry" />
        </mxCell>
        <mxCell id="G7fX_YhACkhLRDJqQzmJ-47" value="" style="shape=folder;fontStyle=1;spacingTop=10;tabWidth=194;tabHeight=22;tabPosition=left;html=1;rounded=0;shadow=0;comic=0;labelBackgroundColor=none;strokeWidth=1;fillColor=none;fontFamily=Verdana;fontSize=10;align=center;" parent="1" vertex="1">
          <mxGeometry x="1450" y="520" width="300" height="150" as="geometry" />
        </mxCell>
        <mxCell id="G7fX_YhACkhLRDJqQzmJ-48" value="&amp;nbsp;User Data Server" style="text;html=1;strokeColor=none;fillColor=none;align=center;verticalAlign=middle;whiteSpace=wrap;rounded=0;" parent="1" vertex="1">
          <mxGeometry x="1450" y="520" width="110" height="20" as="geometry" />
        </mxCell>
        <mxCell id="G7fX_YhACkhLRDJqQzmJ-49" value="&lt;div&gt;&lt;b&gt;&amp;lt;&amp;lt;Service&amp;gt;&amp;gt;&lt;/b&gt;&lt;/div&gt;User DBMS" style="html=1;dropTarget=0;whiteSpace=wrap;" parent="1" vertex="1">
          <mxGeometry x="1570" y="570" width="145" height="70" as="geometry" />
        </mxCell>
        <mxCell id="G7fX_YhACkhLRDJqQzmJ-50" value="" style="shape=module;jettyWidth=8;jettyHeight=4;fillColor=#f8cecc;strokeColor=#b85450;" parent="G7fX_YhACkhLRDJqQzmJ-49" vertex="1">
          <mxGeometry x="1" width="20" height="20" relative="1" as="geometry">
            <mxPoint x="-27" y="7" as="offset" />
          </mxGeometry>
        </mxCell>
        <mxCell id="G7fX_YhACkhLRDJqQzmJ-51" style="edgeStyle=orthogonalEdgeStyle;rounded=0;orthogonalLoop=1;jettySize=auto;html=1;endArrow=none;endFill=0;jumpStyle=arc;" parent="1" source="G7fX_YhACkhLRDJqQzmJ-53" target="G7fX_YhACkhLRDJqQzmJ-49" edge="1">
          <mxGeometry relative="1" as="geometry" />
        </mxCell>
        <mxCell id="G7fX_YhACkhLRDJqQzmJ-53" value="" style="shape=providedRequiredInterface;html=1;verticalLabelPosition=bottom;sketch=0;rotation=-180;" parent="1" vertex="1">
          <mxGeometry x="1480" y="595" width="20" height="20" as="geometry" />
        </mxCell>
        <mxCell id="G7fX_YhACkhLRDJqQzmJ-54" value="DBMS Interface" style="text;html=1;strokeColor=none;fillColor=none;align=center;verticalAlign=middle;whiteSpace=wrap;rounded=0;" parent="1" vertex="1">
          <mxGeometry x="1460" y="620" width="60" height="30" as="geometry" />
        </mxCell>
        <mxCell id="G7fX_YhACkhLRDJqQzmJ-59" value="&lt;div&gt;&lt;b&gt;&amp;lt;&amp;lt;Service&amp;gt;&amp;gt;&lt;/b&gt;&lt;/div&gt;Notification Manager" style="html=1;dropTarget=0;whiteSpace=wrap;" parent="1" vertex="1">
          <mxGeometry x="1150" y="950" width="145" height="70" as="geometry" />
        </mxCell>
        <mxCell id="G7fX_YhACkhLRDJqQzmJ-60" value="" style="shape=module;jettyWidth=8;jettyHeight=4;fillColor=#d5e8d4;strokeColor=#82b366;" parent="G7fX_YhACkhLRDJqQzmJ-59" vertex="1">
          <mxGeometry x="1" width="20" height="20" relative="1" as="geometry">
            <mxPoint x="-27" y="7" as="offset" />
          </mxGeometry>
        </mxCell>
        <mxCell id="G7fX_YhACkhLRDJqQzmJ-61" style="edgeStyle=orthogonalEdgeStyle;rounded=0;orthogonalLoop=1;jettySize=auto;html=1;endArrow=none;endFill=0;jumpStyle=arc;" parent="1" source="G7fX_YhACkhLRDJqQzmJ-62" target="G7fX_YhACkhLRDJqQzmJ-59" edge="1">
          <mxGeometry relative="1" as="geometry" />
        </mxCell>
        <mxCell id="G7fX_YhACkhLRDJqQzmJ-62" value="" style="shape=providedRequiredInterface;html=1;verticalLabelPosition=bottom;sketch=0;rotation=-180;" parent="1" vertex="1">
          <mxGeometry x="1020" y="975" width="20" height="20" as="geometry" />
        </mxCell>
        <mxCell id="G7fX_YhACkhLRDJqQzmJ-63" value="Notification Manager Interface" style="text;html=1;strokeColor=none;fillColor=none;align=center;verticalAlign=middle;whiteSpace=wrap;rounded=0;" parent="1" vertex="1">
          <mxGeometry x="982.5" y="1000" width="105" height="30" as="geometry" />
        </mxCell>
        <mxCell id="G7fX_YhACkhLRDJqQzmJ-64" value="&lt;div&gt;&lt;b&gt;«Component»&lt;/b&gt;&lt;/div&gt;&lt;div&gt;Notification APIs&lt;/div&gt;" style="html=1;dropTarget=0;whiteSpace=wrap;" parent="1" vertex="1">
          <mxGeometry x="1653" y="1479" width="140" height="70" as="geometry" />
        </mxCell>
        <mxCell id="G7fX_YhACkhLRDJqQzmJ-65" value="" style="shape=module;jettyWidth=8;jettyHeight=4;fillColor=#e1d5e7;strokeColor=#9673a6;" parent="G7fX_YhACkhLRDJqQzmJ-64" vertex="1">
          <mxGeometry x="1" width="20" height="20" relative="1" as="geometry">
            <mxPoint x="-27" y="7" as="offset" />
          </mxGeometry>
        </mxCell>
        <mxCell id="G7fX_YhACkhLRDJqQzmJ-66" style="edgeStyle=orthogonalEdgeStyle;rounded=0;orthogonalLoop=1;jettySize=auto;html=1;endArrow=none;endFill=0;jumpStyle=arc;" parent="1" source="G7fX_YhACkhLRDJqQzmJ-68" target="G7fX_YhACkhLRDJqQzmJ-64" edge="1">
          <mxGeometry relative="1" as="geometry" />
        </mxCell>
        <mxCell id="G7fX_YhACkhLRDJqQzmJ-67" style="edgeStyle=orthogonalEdgeStyle;rounded=0;orthogonalLoop=1;jettySize=auto;html=1;jumpStyle=arc;endArrow=none;endFill=0;dashed=1;" parent="1" source="G7fX_YhACkhLRDJqQzmJ-68" target="G7fX_YhACkhLRDJqQzmJ-59" edge="1">
          <mxGeometry relative="1" as="geometry">
            <Array as="points">
              <mxPoint x="1510" y="1514" />
              <mxPoint x="1510" y="1400" />
              <mxPoint x="1440" y="1400" />
              <mxPoint x="1440" y="985" />
            </Array>
          </mxGeometry>
        </mxCell>
        <mxCell id="G7fX_YhACkhLRDJqQzmJ-68" value="" style="shape=providedRequiredInterface;html=1;verticalLabelPosition=bottom;sketch=0;rotation=-180;" parent="1" vertex="1">
          <mxGeometry x="1563" y="1504" width="20" height="20" as="geometry" />
        </mxCell>
        <mxCell id="G7fX_YhACkhLRDJqQzmJ-69" value="&lt;div&gt;Notification&lt;/div&gt;&lt;div&gt;APIs Interface&lt;br&gt;&lt;/div&gt;" style="text;html=1;strokeColor=none;fillColor=none;align=center;verticalAlign=middle;whiteSpace=wrap;rounded=0;" parent="1" vertex="1">
          <mxGeometry x="1531" y="1524" width="84" height="35" as="geometry" />
        </mxCell>
        <mxCell id="G7fX_YhACkhLRDJqQzmJ-71" style="edgeStyle=orthogonalEdgeStyle;rounded=0;orthogonalLoop=1;jettySize=auto;html=1;entryX=1;entryY=0.5;entryDx=0;entryDy=0;entryPerimeter=0;endArrow=none;endFill=0;jumpStyle=arc;" parent="1" source="G7fX_YhACkhLRDJqQzmJ-19" target="G7fX_YhACkhLRDJqQzmJ-62" edge="1">
          <mxGeometry relative="1" as="geometry">
            <Array as="points">
              <mxPoint x="1250" y="480" />
              <mxPoint x="1420" y="480" />
              <mxPoint x="1420" y="1090" />
              <mxPoint x="960" y="1090" />
              <mxPoint x="960" y="985" />
            </Array>
          </mxGeometry>
        </mxCell>
        <mxCell id="G7fX_YhACkhLRDJqQzmJ-72" style="edgeStyle=orthogonalEdgeStyle;rounded=0;orthogonalLoop=1;jettySize=auto;html=1;entryX=1;entryY=0.5;entryDx=0;entryDy=0;entryPerimeter=0;endArrow=none;endFill=0;jumpStyle=arc;" parent="1" source="G7fX_YhACkhLRDJqQzmJ-21" target="G7fX_YhACkhLRDJqQzmJ-62" edge="1">
          <mxGeometry relative="1" as="geometry">
            <Array as="points">
              <mxPoint x="1400" y="570" />
              <mxPoint x="1400" y="1060" />
              <mxPoint x="980" y="1060" />
              <mxPoint x="980" y="985" />
            </Array>
          </mxGeometry>
        </mxCell>
        <mxCell id="G7fX_YhACkhLRDJqQzmJ-73" value="&lt;div&gt;&lt;b&gt;&amp;lt;&amp;lt;Service&amp;gt;&amp;gt;&lt;/b&gt;&lt;/div&gt;Evaluation Manager" style="html=1;dropTarget=0;whiteSpace=wrap;" parent="1" vertex="1">
          <mxGeometry x="1150" y="1190" width="145" height="70" as="geometry" />
        </mxCell>
        <mxCell id="G7fX_YhACkhLRDJqQzmJ-74" value="" style="shape=module;jettyWidth=8;jettyHeight=4;fillColor=#d5e8d4;strokeColor=#82b366;" parent="G7fX_YhACkhLRDJqQzmJ-73" vertex="1">
          <mxGeometry x="1" width="20" height="20" relative="1" as="geometry">
            <mxPoint x="-27" y="7" as="offset" />
          </mxGeometry>
        </mxCell>
        <mxCell id="G7fX_YhACkhLRDJqQzmJ-75" style="edgeStyle=orthogonalEdgeStyle;rounded=0;orthogonalLoop=1;jettySize=auto;html=1;endArrow=none;endFill=0;jumpStyle=arc;" parent="1" source="G7fX_YhACkhLRDJqQzmJ-77" target="G7fX_YhACkhLRDJqQzmJ-73" edge="1">
          <mxGeometry relative="1" as="geometry" />
        </mxCell>
        <mxCell id="G7fX_YhACkhLRDJqQzmJ-77" value="" style="shape=providedRequiredInterface;html=1;verticalLabelPosition=bottom;sketch=0;rotation=-180;" parent="1" vertex="1">
          <mxGeometry x="1025" y="1215" width="20" height="20" as="geometry" />
        </mxCell>
        <mxCell id="G7fX_YhACkhLRDJqQzmJ-78" value="Evaluation Manager Interface" style="text;html=1;strokeColor=none;fillColor=none;align=center;verticalAlign=middle;whiteSpace=wrap;rounded=0;" parent="1" vertex="1">
          <mxGeometry x="977.5" y="1235" width="115" height="30" as="geometry" />
        </mxCell>
        <mxCell id="G7fX_YhACkhLRDJqQzmJ-79" style="edgeStyle=orthogonalEdgeStyle;rounded=0;orthogonalLoop=1;jettySize=auto;html=1;entryX=1;entryY=0.5;entryDx=0;entryDy=0;entryPerimeter=0;endArrow=none;endFill=0;jumpStyle=arc;" parent="1" source="G7fX_YhACkhLRDJqQzmJ-21" target="G7fX_YhACkhLRDJqQzmJ-77" edge="1">
          <mxGeometry relative="1" as="geometry">
            <Array as="points">
              <mxPoint x="1110" y="610" />
              <mxPoint x="1110" y="1160" />
              <mxPoint x="980" y="1160" />
              <mxPoint x="980" y="1225" />
            </Array>
          </mxGeometry>
        </mxCell>
        <mxCell id="G7fX_YhACkhLRDJqQzmJ-80" style="edgeStyle=orthogonalEdgeStyle;rounded=0;orthogonalLoop=1;jettySize=auto;html=1;entryX=1;entryY=0.5;entryDx=0;entryDy=0;entryPerimeter=0;endArrow=none;endFill=0;jumpStyle=arc;dashed=1;" parent="1" source="G7fX_YhACkhLRDJqQzmJ-45" target="G7fX_YhACkhLRDJqQzmJ-77" edge="1">
          <mxGeometry relative="1" as="geometry">
            <Array as="points">
              <mxPoint x="1130" y="1515" />
              <mxPoint x="1130" y="1420" />
              <mxPoint x="740" y="1420" />
              <mxPoint x="740" y="1225" />
            </Array>
          </mxGeometry>
        </mxCell>
        <mxCell id="G7fX_YhACkhLRDJqQzmJ-81" style="edgeStyle=orthogonalEdgeStyle;rounded=0;orthogonalLoop=1;jettySize=auto;html=1;entryX=1;entryY=0.5;entryDx=0;entryDy=0;entryPerimeter=0;endArrow=none;endFill=0;dashed=1;jumpStyle=arc;" parent="1" source="G7fX_YhACkhLRDJqQzmJ-13" target="G7fX_YhACkhLRDJqQzmJ-77" edge="1">
          <mxGeometry relative="1" as="geometry">
            <Array as="points">
              <mxPoint x="630" y="1510" />
              <mxPoint x="630" y="1225" />
            </Array>
          </mxGeometry>
        </mxCell>
        <mxCell id="G7fX_YhACkhLRDJqQzmJ-84" style="edgeStyle=orthogonalEdgeStyle;rounded=0;orthogonalLoop=1;jettySize=auto;html=1;endArrow=none;endFill=0;jumpStyle=arc;" parent="1" source="G7fX_YhACkhLRDJqQzmJ-85" target="G7fX_YhACkhLRDJqQzmJ-87" edge="1">
          <mxGeometry relative="1" as="geometry" />
        </mxCell>
        <mxCell id="G7fX_YhACkhLRDJqQzmJ-85" value="&lt;div&gt;&lt;b&gt;&amp;lt;&amp;lt;Service&amp;gt;&amp;gt;&lt;/b&gt;&lt;/div&gt;Group Manager" style="html=1;dropTarget=0;whiteSpace=wrap;" parent="1" vertex="1">
          <mxGeometry x="1150" y="1290" width="145" height="70" as="geometry" />
        </mxCell>
        <mxCell id="G7fX_YhACkhLRDJqQzmJ-86" value="" style="shape=module;jettyWidth=8;jettyHeight=4;fillColor=#d5e8d4;strokeColor=#82b366;" parent="G7fX_YhACkhLRDJqQzmJ-85" vertex="1">
          <mxGeometry x="1" width="20" height="20" relative="1" as="geometry">
            <mxPoint x="-27" y="7" as="offset" />
          </mxGeometry>
        </mxCell>
        <mxCell id="G7fX_YhACkhLRDJqQzmJ-87" value="" style="shape=providedRequiredInterface;html=1;verticalLabelPosition=bottom;sketch=0;rotation=-180;" parent="1" vertex="1">
          <mxGeometry x="1025" y="1315" width="20" height="20" as="geometry" />
        </mxCell>
        <mxCell id="G7fX_YhACkhLRDJqQzmJ-88" value="&lt;div&gt;Group Manager&lt;/div&gt;&lt;div&gt;Interface&lt;br&gt;&lt;/div&gt;" style="text;html=1;strokeColor=none;fillColor=none;align=center;verticalAlign=middle;whiteSpace=wrap;rounded=0;" parent="1" vertex="1">
          <mxGeometry x="989" y="1340" width="92" height="30" as="geometry" />
        </mxCell>
        <mxCell id="G7fX_YhACkhLRDJqQzmJ-89" style="edgeStyle=orthogonalEdgeStyle;rounded=0;orthogonalLoop=1;jettySize=auto;html=1;entryX=1;entryY=0.5;entryDx=0;entryDy=0;entryPerimeter=0;jumpStyle=arc;endArrow=none;endFill=0;" parent="1" source="G7fX_YhACkhLRDJqQzmJ-85" target="G7fX_YhACkhLRDJqQzmJ-62" edge="1">
          <mxGeometry relative="1" as="geometry">
            <Array as="points">
              <mxPoint x="1320" y="1325" />
              <mxPoint x="1320" y="1120" />
              <mxPoint x="920" y="1120" />
              <mxPoint x="920" y="985" />
            </Array>
          </mxGeometry>
        </mxCell>
        <mxCell id="G7fX_YhACkhLRDJqQzmJ-93" value="" style="shape=folder;fontStyle=1;spacingTop=10;tabWidth=194;tabHeight=22;tabPosition=left;html=1;rounded=0;shadow=0;comic=0;labelBackgroundColor=none;strokeWidth=1;fillColor=none;fontFamily=Verdana;fontSize=10;align=center;" parent="1" vertex="1">
          <mxGeometry x="1450" y="730" width="300" height="150" as="geometry" />
        </mxCell>
        <mxCell id="G7fX_YhACkhLRDJqQzmJ-94" value="&amp;nbsp;Tournament Data Server" style="text;html=1;strokeColor=none;fillColor=none;align=center;verticalAlign=middle;whiteSpace=wrap;rounded=0;" parent="1" vertex="1">
          <mxGeometry x="1450" y="730" width="160" height="20" as="geometry" />
        </mxCell>
        <mxCell id="G7fX_YhACkhLRDJqQzmJ-95" value="&lt;div&gt;&lt;b&gt;&amp;lt;&amp;lt;Service&amp;gt;&amp;gt;&lt;/b&gt;&lt;/div&gt;Tournament DBMS" style="html=1;dropTarget=0;whiteSpace=wrap;" parent="1" vertex="1">
          <mxGeometry x="1570" y="780" width="145" height="70" as="geometry" />
        </mxCell>
        <mxCell id="G7fX_YhACkhLRDJqQzmJ-96" value="" style="shape=module;jettyWidth=8;jettyHeight=4;fillColor=#f8cecc;strokeColor=#b85450;" parent="G7fX_YhACkhLRDJqQzmJ-95" vertex="1">
          <mxGeometry x="1" width="20" height="20" relative="1" as="geometry">
            <mxPoint x="-27" y="7" as="offset" />
          </mxGeometry>
        </mxCell>
        <mxCell id="G7fX_YhACkhLRDJqQzmJ-97" style="edgeStyle=orthogonalEdgeStyle;rounded=0;orthogonalLoop=1;jettySize=auto;html=1;endArrow=none;endFill=0;jumpStyle=arc;" parent="1" source="G7fX_YhACkhLRDJqQzmJ-98" target="G7fX_YhACkhLRDJqQzmJ-95" edge="1">
          <mxGeometry relative="1" as="geometry" />
        </mxCell>
        <mxCell id="G7fX_YhACkhLRDJqQzmJ-98" value="" style="shape=providedRequiredInterface;html=1;verticalLabelPosition=bottom;sketch=0;rotation=-180;" parent="1" vertex="1">
          <mxGeometry x="1480" y="805" width="20" height="20" as="geometry" />
        </mxCell>
        <mxCell id="G7fX_YhACkhLRDJqQzmJ-99" value="DBMS Interface" style="text;html=1;strokeColor=none;fillColor=none;align=center;verticalAlign=middle;whiteSpace=wrap;rounded=0;" parent="1" vertex="1">
          <mxGeometry x="1460" y="830" width="60" height="30" as="geometry" />
        </mxCell>
        <mxCell id="G7fX_YhACkhLRDJqQzmJ-100" style="edgeStyle=orthogonalEdgeStyle;rounded=0;orthogonalLoop=1;jettySize=auto;html=1;entryX=1;entryY=0.5;entryDx=0;entryDy=0;entryPerimeter=0;endArrow=none;endFill=0;jumpStyle=arc;" parent="1" source="G7fX_YhACkhLRDJqQzmJ-21" target="G7fX_YhACkhLRDJqQzmJ-98" edge="1">
          <mxGeometry relative="1" as="geometry" />
        </mxCell>
        <mxCell id="G7fX_YhACkhLRDJqQzmJ-101" style="edgeStyle=orthogonalEdgeStyle;rounded=0;orthogonalLoop=1;jettySize=auto;html=1;entryX=1;entryY=0.5;entryDx=0;entryDy=0;entryPerimeter=0;endArrow=none;endFill=0;jumpStyle=arc;" parent="1" source="G7fX_YhACkhLRDJqQzmJ-19" target="G7fX_YhACkhLRDJqQzmJ-98" edge="1">
          <mxGeometry relative="1" as="geometry">
            <Array as="points">
              <mxPoint x="1410" y="395" />
              <mxPoint x="1410" y="815" />
            </Array>
          </mxGeometry>
        </mxCell>
        <mxCell id="G7fX_YhACkhLRDJqQzmJ-102" style="edgeStyle=orthogonalEdgeStyle;rounded=0;orthogonalLoop=1;jettySize=auto;html=1;entryX=1;entryY=0.5;entryDx=0;entryDy=0;entryPerimeter=0;jumpStyle=arc;endArrow=none;endFill=0;" parent="1" source="G7fX_YhACkhLRDJqQzmJ-23" target="G7fX_YhACkhLRDJqQzmJ-98" edge="1">
          <mxGeometry relative="1" as="geometry">
            <Array as="points">
              <mxPoint x="1360" y="705" />
              <mxPoint x="1360" y="815" />
            </Array>
          </mxGeometry>
        </mxCell>
        <mxCell id="G7fX_YhACkhLRDJqQzmJ-103" style="edgeStyle=orthogonalEdgeStyle;rounded=0;orthogonalLoop=1;jettySize=auto;html=1;entryX=1;entryY=0.5;entryDx=0;entryDy=0;entryPerimeter=0;endArrow=none;endFill=0;jumpStyle=arc;" parent="1" source="G7fX_YhACkhLRDJqQzmJ-7" target="G7fX_YhACkhLRDJqQzmJ-53" edge="1">
          <mxGeometry relative="1" as="geometry">
            <Array as="points">
              <mxPoint x="765" y="340" />
              <mxPoint x="1440" y="340" />
              <mxPoint x="1440" y="605" />
            </Array>
          </mxGeometry>
        </mxCell>
        <mxCell id="G7fX_YhACkhLRDJqQzmJ-106" value="" style="shape=folder;fontStyle=1;spacingTop=10;tabWidth=194;tabHeight=22;tabPosition=left;html=1;rounded=0;shadow=0;comic=0;labelBackgroundColor=none;strokeWidth=1;fillColor=none;fontFamily=Verdana;fontSize=10;align=center;" parent="1" vertex="1">
          <mxGeometry x="1450" y="920" width="300" height="150" as="geometry" />
        </mxCell>
        <mxCell id="G7fX_YhACkhLRDJqQzmJ-107" value="&amp;nbsp;Group Data Server" style="text;html=1;strokeColor=none;fillColor=none;align=center;verticalAlign=middle;whiteSpace=wrap;rounded=0;" parent="1" vertex="1">
          <mxGeometry x="1450" y="920" width="160" height="20" as="geometry" />
        </mxCell>
        <mxCell id="G7fX_YhACkhLRDJqQzmJ-108" value="&lt;div&gt;&lt;b&gt;&amp;lt;&amp;lt;Service&amp;gt;&amp;gt;&lt;/b&gt;&lt;/div&gt;Group DBMS" style="html=1;dropTarget=0;whiteSpace=wrap;" parent="1" vertex="1">
          <mxGeometry x="1570" y="970" width="145" height="70" as="geometry" />
        </mxCell>
        <mxCell id="G7fX_YhACkhLRDJqQzmJ-109" value="" style="shape=module;jettyWidth=8;jettyHeight=4;fillColor=#f8cecc;strokeColor=#b85450;" parent="G7fX_YhACkhLRDJqQzmJ-108" vertex="1">
          <mxGeometry x="1" width="20" height="20" relative="1" as="geometry">
            <mxPoint x="-27" y="7" as="offset" />
          </mxGeometry>
        </mxCell>
        <mxCell id="G7fX_YhACkhLRDJqQzmJ-110" style="edgeStyle=orthogonalEdgeStyle;rounded=0;orthogonalLoop=1;jettySize=auto;html=1;endArrow=none;endFill=0;jumpStyle=arc;" parent="1" source="G7fX_YhACkhLRDJqQzmJ-111" target="G7fX_YhACkhLRDJqQzmJ-108" edge="1">
          <mxGeometry relative="1" as="geometry" />
        </mxCell>
        <mxCell id="G7fX_YhACkhLRDJqQzmJ-111" value="" style="shape=providedRequiredInterface;html=1;verticalLabelPosition=bottom;sketch=0;rotation=-180;" parent="1" vertex="1">
          <mxGeometry x="1480" y="995" width="20" height="20" as="geometry" />
        </mxCell>
        <mxCell id="G7fX_YhACkhLRDJqQzmJ-112" value="DBMS Interface" style="text;html=1;strokeColor=none;fillColor=none;align=center;verticalAlign=middle;whiteSpace=wrap;rounded=0;" parent="1" vertex="1">
          <mxGeometry x="1460" y="1020" width="60" height="30" as="geometry" />
        </mxCell>
        <mxCell id="G7fX_YhACkhLRDJqQzmJ-113" style="edgeStyle=orthogonalEdgeStyle;rounded=0;orthogonalLoop=1;jettySize=auto;html=1;entryX=1;entryY=0.5;entryDx=0;entryDy=0;entryPerimeter=0;endArrow=none;endFill=0;jumpStyle=arc;" parent="1" source="G7fX_YhACkhLRDJqQzmJ-85" target="G7fX_YhACkhLRDJqQzmJ-111" edge="1">
          <mxGeometry relative="1" as="geometry">
            <Array as="points">
              <mxPoint x="1430" y="1340" />
              <mxPoint x="1430" y="1005" />
            </Array>
          </mxGeometry>
        </mxCell>
        <mxCell id="G7fX_YhACkhLRDJqQzmJ-114" style="edgeStyle=orthogonalEdgeStyle;rounded=0;orthogonalLoop=1;jettySize=auto;html=1;entryX=1;entryY=0.5;entryDx=0;entryDy=0;entryPerimeter=0;endArrow=none;endFill=0;jumpStyle=arc;" parent="1" source="G7fX_YhACkhLRDJqQzmJ-73" target="G7fX_YhACkhLRDJqQzmJ-98" edge="1">
          <mxGeometry relative="1" as="geometry">
            <Array as="points">
              <mxPoint x="1330" y="1225" />
              <mxPoint x="1330" y="815" />
            </Array>
          </mxGeometry>
        </mxCell>
        <mxCell id="ERWGtbPGF028gDJb0S7q-1" style="edgeStyle=orthogonalEdgeStyle;rounded=0;orthogonalLoop=1;jettySize=auto;html=1;entryX=1;entryY=0.5;entryDx=0;entryDy=0;entryPerimeter=0;endArrow=none;endFill=0;jumpStyle=arc;" edge="1" parent="1" source="G7fX_YhACkhLRDJqQzmJ-3" target="G7fX_YhACkhLRDJqQzmJ-26">
          <mxGeometry relative="1" as="geometry">
            <Array as="points">
              <mxPoint x="370" y="395" />
            </Array>
          </mxGeometry>
        </mxCell>
        <mxCell id="ERWGtbPGF028gDJb0S7q-2" style="edgeStyle=orthogonalEdgeStyle;rounded=0;orthogonalLoop=1;jettySize=auto;html=1;entryX=1;entryY=0.5;entryDx=0;entryDy=0;entryPerimeter=0;endArrow=none;endFill=0;jumpStyle=arc;" edge="1" parent="1" source="G7fX_YhACkhLRDJqQzmJ-3" target="G7fX_YhACkhLRDJqQzmJ-28">
          <mxGeometry relative="1" as="geometry">
            <Array as="points">
              <mxPoint x="400" y="450" />
              <mxPoint x="940" y="450" />
              <mxPoint x="940" y="515" />
            </Array>
          </mxGeometry>
        </mxCell>
        <mxCell id="ERWGtbPGF028gDJb0S7q-3" style="edgeStyle=orthogonalEdgeStyle;rounded=0;orthogonalLoop=1;jettySize=auto;html=1;entryX=1;entryY=0.5;entryDx=0;entryDy=0;entryPerimeter=0;endArrow=none;endFill=0;jumpStyle=arc;" edge="1" parent="1" source="G7fX_YhACkhLRDJqQzmJ-3" target="G7fX_YhACkhLRDJqQzmJ-30">
          <mxGeometry relative="1" as="geometry">
            <Array as="points">
              <mxPoint x="430" y="705" />
            </Array>
          </mxGeometry>
        </mxCell>
        <mxCell id="ERWGtbPGF028gDJb0S7q-4" style="edgeStyle=orthogonalEdgeStyle;rounded=0;orthogonalLoop=1;jettySize=auto;html=1;entryX=1;entryY=0.5;entryDx=0;entryDy=0;entryPerimeter=0;endArrow=none;endFill=0;jumpStyle=arc;" edge="1" parent="1" source="G7fX_YhACkhLRDJqQzmJ-3" target="G7fX_YhACkhLRDJqQzmJ-77">
          <mxGeometry relative="1" as="geometry">
            <Array as="points">
              <mxPoint x="380" y="1170" />
              <mxPoint x="950" y="1170" />
              <mxPoint x="950" y="1225" />
            </Array>
          </mxGeometry>
        </mxCell>
        <mxCell id="ERWGtbPGF028gDJb0S7q-5" style="edgeStyle=orthogonalEdgeStyle;rounded=0;orthogonalLoop=1;jettySize=auto;html=1;entryX=1;entryY=0.5;entryDx=0;entryDy=0;entryPerimeter=0;jumpStyle=arc;endArrow=none;endFill=0;" edge="1" parent="1" source="G7fX_YhACkhLRDJqQzmJ-3" target="G7fX_YhACkhLRDJqQzmJ-87">
          <mxGeometry relative="1" as="geometry">
            <Array as="points">
              <mxPoint x="340" y="1325" />
            </Array>
          </mxGeometry>
        </mxCell>
        <mxCell id="ERWGtbPGF028gDJb0S7q-6" style="edgeStyle=orthogonalEdgeStyle;rounded=0;orthogonalLoop=1;jettySize=auto;html=1;entryX=1;entryY=0.5;entryDx=0;entryDy=0;entryPerimeter=0;endArrow=none;endFill=0;jumpStyle=arc;" edge="1" parent="1" source="G7fX_YhACkhLRDJqQzmJ-23" target="G7fX_YhACkhLRDJqQzmJ-16">
          <mxGeometry relative="1" as="geometry">
            <Array as="points">
              <mxPoint x="1223" y="640" />
              <mxPoint x="540" y="640" />
              <mxPoint x="540" y="515" />
            </Array>
          </mxGeometry>
        </mxCell>
        <mxCell id="ERWGtbPGF028gDJb0S7q-7" style="edgeStyle=orthogonalEdgeStyle;rounded=0;orthogonalLoop=1;jettySize=auto;html=1;entryX=1;entryY=0.5;entryDx=0;entryDy=0;entryPerimeter=0;endArrow=none;endFill=0;jumpStyle=arc;" edge="1" parent="1" source="G7fX_YhACkhLRDJqQzmJ-21" target="G7fX_YhACkhLRDJqQzmJ-16">
          <mxGeometry relative="1" as="geometry">
            <Array as="points">
              <mxPoint x="1223" y="470" />
              <mxPoint x="560" y="470" />
              <mxPoint x="560" y="515" />
            </Array>
          </mxGeometry>
        </mxCell>
        <mxCell id="ERWGtbPGF028gDJb0S7q-8" style="edgeStyle=orthogonalEdgeStyle;rounded=0;orthogonalLoop=1;jettySize=auto;html=1;entryX=1;entryY=0.5;entryDx=0;entryDy=0;entryPerimeter=0;endArrow=none;endFill=0;jumpStyle=arc;" edge="1" parent="1" source="G7fX_YhACkhLRDJqQzmJ-19" target="G7fX_YhACkhLRDJqQzmJ-16">
          <mxGeometry relative="1" as="geometry">
            <Array as="points">
              <mxPoint x="1223" y="440" />
              <mxPoint x="520" y="440" />
              <mxPoint x="520" y="515" />
            </Array>
          </mxGeometry>
        </mxCell>
        <mxCell id="ERWGtbPGF028gDJb0S7q-9" style="edgeStyle=orthogonalEdgeStyle;rounded=0;orthogonalLoop=1;jettySize=auto;html=1;entryX=1;entryY=0.5;entryDx=0;entryDy=0;entryPerimeter=0;jumpStyle=arc;endArrow=none;endFill=0;" edge="1" parent="1" source="G7fX_YhACkhLRDJqQzmJ-73" target="G7fX_YhACkhLRDJqQzmJ-16">
          <mxGeometry relative="1" as="geometry">
            <Array as="points">
              <mxPoint x="1223" y="1140" />
              <mxPoint x="530" y="1140" />
              <mxPoint x="530" y="515" />
            </Array>
          </mxGeometry>
        </mxCell>
        <mxCell id="ERWGtbPGF028gDJb0S7q-10" style="edgeStyle=orthogonalEdgeStyle;rounded=0;orthogonalLoop=1;jettySize=auto;html=1;entryX=1;entryY=0.5;entryDx=0;entryDy=0;entryPerimeter=0;jumpStyle=arc;endArrow=none;endFill=0;" edge="1" parent="1" source="G7fX_YhACkhLRDJqQzmJ-85" target="G7fX_YhACkhLRDJqQzmJ-16">
          <mxGeometry relative="1" as="geometry">
            <Array as="points">
              <mxPoint x="1223" y="1270" />
              <mxPoint x="510" y="1270" />
              <mxPoint x="510" y="515" />
            </Array>
          </mxGeometry>
        </mxCell>
      </root>
    </mxGraphModel>
  </diagram>
</mxfile>
